<svg width="225" height="225" viewBox="0 0 225 225" fill="none" xmlns="http://www.w3.org/2000/svg">
<rect width="225" height="225" fill="white" fill-opacity="0.39"/>
<path d="M208.074 111.848C139.372 63.3342 73.2926 82.5819 17.8921 111.692C16.5672 112.388 16.5116 114.267 17.7554 115.099C114.13 179.6 195.266 124.692 208.234 114.673C209.207 113.921 209.078 112.557 208.074 111.848Z" stroke="black" stroke-width="5"/>
<path fill-rule="evenodd" clip-rule="evenodd" d="M113.812 142.623C129.724 142.623 142.623 129.724 142.623 113.812C142.623 110.609 142.1 107.528 141.136 104.65C138.897 108.998 134.365 111.972 129.137 111.972C121.689 111.972 115.651 105.934 115.651 98.4862C115.651 93.2586 118.625 88.7257 122.974 86.4875C120.096 85.5227 117.015 85 113.812 85C97.8994 85 85 97.8994 85 113.812C85 129.724 97.8994 142.623 113.812 142.623Z" fill="black"/>
</svg>
